<svg class="canvas" version="1.1" xmlns="http://www.w3.org/2000/svg" xmlns:xlink="http://www.w3.org/1999/xlink" width="100%" height="100%"><defs class="[object Object]"></defs><g class="logo-entity" id="symbol" transform="translate(145.49996948242188, 89.35000610351562) scale(2.155)"><g class="logo-entity-inner"><g class="[object Object]" data-noun-id="37883" data-attribution="" transform="scale(1.3892106813377172)"><path fill="#000000" d="M44.884,80.976c-7.388,0-13.603-1.947-17.972-5.631c-1.446-1.219-3.019-2.208-4.684-3.255  c-1.403-0.882-2.853-1.794-4.223-2.857c-3.943-3.061-5.52-7.858-6.671-11.361c-2.108-6.416-3.863-14.859,1.32-23.277  c2.012-3.266,1.992-5.701,1.785-9.724c-0.226-4.391,1.296-8.439,4.176-11.107c4.449-4.123,11.396-4.738,15.141-4.738  c3.345,0,6.751,0.465,9.593,1.309c1.622,0.481,3.381,0.675,5.244,0.881c1.901,0.209,3.866,0.426,5.79,0.974  c3.755,1.069,5.743,3.759,7.664,6.36c0.242,0.327,0.484,0.655,0.731,0.98c1.088,1.436,2.25,2.897,3.433,4.383  c4.229,5.317,8.601,10.815,11.047,16.755c1.595,3.869,6.349,16.977,1.036,24.09c-1.691,5.244-8.128,9.339-10.915,10.902  c-2.745,1.541-5.546,2.511-8.56,2.961c-1.312,0.197-2.621,0.566-4.008,0.958c-1.662,0.468-3.381,0.952-5.171,1.142  C48.031,80.889,46.431,80.976,44.884,80.976z M33.757,12.514c-3.184,0-9.05,0.486-12.565,3.743  c-2.096,1.942-3.245,5.098-3.072,8.443c0.235,4.562,0.198,7.624-2.282,11.652c-3.479,5.65-3.783,11.966-0.985,20.482  c1.069,3.253,2.399,7.303,5.488,9.699c1.227,0.953,2.538,1.777,3.926,2.649c1.698,1.068,3.454,2.173,5.095,3.557  c4.655,3.924,11.01,4.747,15.522,4.747c1.411,0,2.874-0.079,4.351-0.234c1.462-0.154,2.95-0.574,4.525-1.019  c1.442-0.406,2.933-0.827,4.484-1.059c2.581-0.388,4.888-1.187,7.258-2.518c4.023-2.259,8.606-5.912,9.4-9.394l2.071-9.059  c-0.32-4.064-1.622-8.569-3.146-12.27c-2.264-5.492-6.48-10.795-10.56-15.924c-1.198-1.507-2.376-2.989-3.481-4.446  c-0.256-0.338-0.507-0.677-0.757-1.015c-1.705-2.307-3.177-4.299-5.708-5.02c-1.61-0.459-3.331-0.648-5.154-0.85  c-1.949-0.215-3.966-0.438-5.919-1.018C39.753,12.922,36.738,12.514,33.757,12.514z" transform="translate(-9.257463455200195,-9.026001930236816)"></path><path fill="#000000" d="M40.442,24.113c-8.345,0-15.11,6.765-15.11,15.11c0,8.345,6.765,15.11,15.11,15.11  s15.109-6.766,15.109-15.11C55.552,30.878,48.787,24.113,40.442,24.113z M44.781,31.046c-0.894,0.892-2.808,0.586-3.954,0.896  c-3.086,0.836-2.853,3.234-4.258,5.433c-1.511,2.363-4.12,2.009-5.948,0.077c-1.53-1.617-0.248-3.887,0.973-5.514  c2.828-3.765,8.539-5.578,12.988-3.754l-0.156-0.313C45.908,28.146,45.653,30.175,44.781,31.046z" transform="translate(-9.257463455200195,-9.026001930236816)"></path></g></g></g><g class="logo-entity" id="title" transform="translate(81.62496948242188, 308.18333435058594) scale(1)"><g class="logo-entity-inner"><text class="[object Object]" font-size="80px" dominant-baseline="text-before-edge" alignment-baseline="text-before-edge" fill="#000000" font-family="Montserrat">Scramble</text></g></g></svg>